<svg xmlns="http://www.w3.org/2000/svg" xmlns:xlink="http://www.w3.org/1999/xlink" viewBox="0 0 1280 840" width="1280" height="840" role="img" aria-labelledby="t d" font-family="'Segoe UI', 'Helvetica Neue', Arial, sans-serif">
<!--
Icons: @fabric-msft/svg-icons 6.1.0 (https://www.npmjs.com/package/@fabric-msft/svg-icons), used under the MIT License:

MIT License

Copyright (c) 2025 Microsoft Corporation

Permission is hereby granted, free of charge, to any person obtaining a copy
of this software and associated documentation files (the "Software"), to deal
in the Software without restriction, including without limitation the rights
to use, copy, modify, merge, publish, distribute, sublicense, and/or sell
copies of the Software, and to permit persons to whom the Software is
furnished to do so, subject to the following conditions:

The above copyright notice and this permission notice shall be included in all
copies or substantial portions of the Software.

THE SOFTWARE IS PROVIDED "AS IS", WITHOUT WARRANTY OF ANY KIND, EXPRESS OR
IMPLIED, INCLUDING BUT NOT LIMITED TO THE WARRANTIES OF MERCHANTABILITY,
FITNESS FOR A PARTICULAR PURPOSE AND NONINFRINGEMENT. IN NO EVENT SHALL THE
AUTHORS OR COPYRIGHT HOLDERS BE LIABLE FOR ANY CLAIM, DAMAGES OR OTHER
LIABILITY, WHETHER IN AN ACTION OF CONTRACT, TORT OR OTHERWISE, ARISING FROM,
OUT OF OR IN CONNECTION WITH THE SOFTWARE OR THE USE OR OTHER DEALINGS IN THE
SOFTWARE.
-->
<title id="t">How credentials flow in the platform app</title>
<desc id="d">1: the person signs in with a platform app password or local demo View as and gets a session cookie. 2: the server signs in to Entra ID as fabrikamsa with an assertion signed by its certificate; federation is also supported. 3: Entra ID returns an access token, kept on the server. 4: the server calls Generate Token V2 for one report and its model, with the person's email and RLS roles. 5: Power BI returns an embed token, requested for 30 minutes by default and capped by the Entra token's expiry. 6: the browser receives the embed URL, embed token and report metadata, never an app credential or Entra token. 7: the browser loads the report with that token. 8: Direct Lake reads OneLake through the fixed workspace-identity connection with SSO off; the model's roles filter the rows.</desc>
<defs><marker id="a-gray" viewBox="0 0 10 10" refX="9" refY="5" markerWidth="7" markerHeight="7" orient="auto-start-reverse"><path d="M0,0 L10,5 L0,10 z" fill="#7D8590"/></marker><marker id="a-blue" viewBox="0 0 10 10" refX="9" refY="5" markerWidth="7" markerHeight="7" orient="auto-start-reverse"><path d="M0,0 L10,5 L0,10 z" fill="#1F5AA6"/></marker><marker id="a-teal" viewBox="0 0 10 10" refX="9" refY="5" markerWidth="7" markerHeight="7" orient="auto-start-reverse"><path d="M0,0 L10,5 L0,10 z" fill="#0B8A8A"/></marker><marker id="a-fab" viewBox="0 0 10 10" refX="9" refY="5" markerWidth="7" markerHeight="7" orient="auto-start-reverse"><path d="M0,0 L10,5 L0,10 z" fill="#C55A11"/></marker><marker id="a-con" viewBox="0 0 10 10" refX="9" refY="5" markerWidth="7" markerHeight="7" orient="auto-start-reverse"><path d="M0,0 L10,5 L0,10 z" fill="#2E7D32"/></marker><marker id="a-red" viewBox="0 0 10 10" refX="9" refY="5" markerWidth="7" markerHeight="7" orient="auto-start-reverse"><path d="M0,0 L10,5 L0,10 z" fill="#C62828"/></marker><pattern id="hatch" width="9" height="9" patternUnits="userSpaceOnUse" patternTransform="rotate(45)"><rect width="9" height="9" fill="#F7F9FC"/><line x1="0" y1="0" x2="0" y2="9" stroke="#E6ECF4" stroke-width="3"/></pattern><g fill="none"><mask id="fi-power-bi-1" width="30" height="40" x="9" y="4" maskUnits="userSpaceOnUse" style="mask-type:alpha"><path fill="#fff" d="M25.667 5.667c0-.92.746-1.667 1.666-1.667h10C38.253 4 39 4.746 39 5.667v36.665c0 .92-.746 1.667-1.667 1.667H10.667c-.92 0-1.667-.746-1.667-1.667V25.666c0-.92.747-1.666 1.667-1.666h6.667v-8.334c0-.92.746-1.666 1.666-1.666h6.667z"/></mask><filter id="fi-power-bi-2" width="19.999" height="36.666" x="14.001" y="11.5" color-interpolation-filters="sRGB" filterUnits="userSpaceOnUse"><feFlood flood-opacity="0" result="BackgroundImageFix"/><feColorMatrix in="SourceAlpha" result="hardAlpha" values="0 0 0 0 0 0 0 0 0 0 0 0 0 0 0 0 0 0 127 0"/><feOffset dy=".158"/><feGaussianBlur stdDeviation=".158"/><feColorMatrix values="0 0 0 0 0 0 0 0 0 0 0 0 0 0 0 0 0 0 0.2 0"/><feBlend in2="BackgroundImageFix" result="effect1_dropShadow_56017_40862"/><feColorMatrix in="SourceAlpha" result="hardAlpha" values="0 0 0 0 0 0 0 0 0 0 0 0 0 0 0 0 0 0 127 0"/><feOffset dy=".833"/><feGaussianBlur stdDeviation="1.667"/><feColorMatrix values="0 0 0 0 0 0 0 0 0 0 0 0 0 0 0 0 0 0 0.18 0"/><feBlend in2="effect1_dropShadow_56017_40862" result="effect2_dropShadow_56017_40862"/><feBlend in="SourceGraphic" in2="effect2_dropShadow_56017_40862" result="shape"/></filter><linearGradient id="fi-power-bi-3" x1="23.445" x2="41.027" y1="4" y2="41.268" gradientUnits="userSpaceOnUse"><stop stop-color="#E6AD10"/><stop offset="1" stop-color="#C87E0E"/></linearGradient><linearGradient id="fi-power-bi-4" x1="17.333" x2="32.119" y1="14" y2="42.677" gradientUnits="userSpaceOnUse"><stop stop-color="#F6D751"/><stop offset="1" stop-color="#E6AD10"/></linearGradient><linearGradient id="fi-power-bi-5" x1="8.999" x2="17.17" y1="24" y2="43.365" gradientUnits="userSpaceOnUse"><stop stop-color="#F9E589"/><stop offset="1" stop-color="#F6D751"/></linearGradient></g><symbol id="fi-power-bi" viewBox="3.2 3.2 41.6 41.6"><g fill="none"><g mask="url(#fi-power-bi-1)"><path fill="url(#fi-power-bi-3)" d="M39 4v39.999H25.667V4z"/><g filter="url(#fi-power-bi-2)"><path fill="url(#fi-power-bi-4)" d="M30.667 15.666V44H17.334v-30H29c.92 0 1.667.747 1.667 1.667"/></g><path fill="url(#fi-power-bi-5)" d="M9 24v19.999h13.334V25.666c0-.92-.747-1.666-1.667-1.666z"/></g></g></symbol>
<radialGradient id="fi-onelake-1" cx="0" cy="0" r="1" gradientTransform="rotate(134.83 18.217 8.044)scale(25.8925 33.4033)" gradientUnits="userSpaceOnUse"><stop offset=".39" stop-color="#028FDC"/><stop offset=".59" stop-color="#0078D4"/><stop offset="1" stop-color="#1A508B"/></radialGradient><radialGradient id="fi-onelake-2" cx="0" cy="0" r="1" gradientTransform="rotate(139.44 12.632 13.895)scale(23.3006 28.7495)" gradientUnits="userSpaceOnUse"><stop offset=".46" stop-color="#40D9FA"/><stop offset=".9" stop-color="#0095E6"/></radialGradient><radialGradient id="fi-onelake-3" cx="0" cy="0" r="1" gradientTransform="matrix(-2.65308 24.58184 -17.45831 -1.88425 18.408 11.264)" gradientUnits="userSpaceOnUse"><stop offset=".77" stop-opacity="0"/><stop offset="1"/></radialGradient><radialGradient id="fi-onelake-4" cx="0" cy="0" r="1" gradientTransform="rotate(85.97 -.743 30.959)scale(38.4749 70.1578)" gradientUnits="userSpaceOnUse"><stop offset=".1" stop-color="#BDF5FF"/><stop offset=".47" stop-color="#40D9FA"/></radialGradient><linearGradient id="fi-onelake-5" x1="39.509" x2="4.448" y1="16.973" y2="25.058" gradientUnits="userSpaceOnUse"><stop offset=".2" stop-color="#028FDC"/><stop offset=".51" stop-color="#0078D4"/><stop offset="1" stop-color="#0B315B"/></linearGradient><linearGradient id="fi-onelake-6" x1="41.995" x2="18.831" y1="27.841" y2="6.612" gradientUnits="userSpaceOnUse"><stop offset=".04" stop-color="#028FDC"/><stop offset=".46" stop-color="#0078D4"/><stop offset="1" stop-color="#0B315B"/></linearGradient><symbol id="fi-onelake" viewBox="3.2 3.2 41.6 41.6"><g fill="currentColor"><path fill="url(#fi-onelake-5)" d="M22.21 32.541c5.486-3.167 7.292-10.312 4.033-15.957-3.26-5.645-10.35-7.654-15.837-4.486S3.113 22.411 6.373 28.056s10.35 7.653 15.836 4.485Z"/><path fill="url(#fi-onelake-6)" d="M29.371 16.715c2.849-2.85 2.781-7.537-.152-10.468-2.932-2.932-7.62-2.998-10.468-.148-2.849 2.85-2.78 7.536.152 10.468 2.933 2.931 7.62 2.998 10.468.148"/><path fill="url(#fi-onelake-1)" d="M26.299 43.22c9.487 0 17.178-7.692 17.178-17.18S35.787 8.862 26.299 8.862 9.12 16.553 9.12 26.041s7.691 17.178 17.179 17.178Z"/><path fill="url(#fi-onelake-2)" fill-rule="evenodd" d="M19.569 5.387c-10.085 6.23-13.61 19.35-7.815 29.845q.585 1.067 1.274 2.039l.45.069 9.966 3.327 9.468-6.343c-1.585.05-8.18-3.693-12.49-11.872-5.4-10.248-3.173-14.982-.843-17.065z" clip-rule="evenodd"/><path fill="url(#fi-onelake-3)" fill-opacity=".2" fill-rule="evenodd" d="M19.569 5.387c-10.085 6.23-13.61 19.35-7.815 29.845q.585 1.067 1.274 2.039l.45.069 9.966 3.327 9.468-6.343c-1.585.05-8.18-3.693-12.49-11.872-5.4-10.248-3.173-14.982-.843-17.065z" clip-rule="evenodd"/><path fill="url(#fi-onelake-4)" fill-rule="evenodd" d="M39.364 37.197a17.24 17.24 0 0 0 3.638-7.109c-1.708-4.877-8.58-6.25-12.34-2.433-2.889 2.927-5.89 5.385-8.146 5.825C9.469 36.041 3.919 25.287 4.873 20.339a19.8 19.8 0 0 0 .05 7.73C7.119 38.831 17.619 45.771 28.38 43.574a19.8 19.8 0 0 0 8.727-4.18s.04-.03.054-.045a20 20 0 0 0 2.202-2.157z" clip-rule="evenodd"/></g></symbol>
<symbol id="fi-lock" viewBox="1.31 1.31 29.38 29.38"><g fill="currentColor"><path d="M12.5 11.499v-.5a3.5 3.5 0 0 1 7 0v.5h.5a2.5 2.5 0 0 1 2.5 2.5v6a2.5 2.5 0 0 1-2.5 2.5h-8a2.5 2.5 0 0 1-2.5-2.5v-6a2.5 2.5 0 0 1 2.5-2.5zm2-.5v.5h3v-.5a1.5 1.5 0 0 0-3 0m3.5 6a2 2 0 1 0-4 0 2 2 0 0 0 4 0"/><path d="M2 15.999c0-7.732 6.268-14 14-14s14 6.268 14 14-6.268 14-14 14-14-6.268-14-14m14-12c-6.627 0-12 5.373-12 12s5.373 12 12 12 12-5.373 12-12-5.373-12-12-12"/></g></symbol>
<linearGradient id="fi-semantic-model-1" x1="20.444" x2="27.022" y1="6" y2="58.622" gradientUnits="userSpaceOnUse"><stop stop-color="#fff"/><stop offset="1" stop-color="#EBEBEB"/></linearGradient><linearGradient id="fi-semantic-model-2" x1="22.792" x2="29.793" y1="6" y2="58.511" gradientUnits="userSpaceOnUse"><stop stop-color="#BBB"/><stop offset="1" stop-color="#888"/></linearGradient><linearGradient id="fi-semantic-model-3" x1="15" x2="32.481" y1="22" y2="51.717" gradientUnits="userSpaceOnUse"><stop stop-color="#7751B8"/><stop offset="1" stop-color="#5A409C"/></linearGradient><linearGradient id="fi-semantic-model-4" x1="15" x2="32.481" y1="22" y2="51.717" gradientUnits="userSpaceOnUse"><stop stop-color="#7751B8"/><stop offset="1" stop-color="#5A409C"/></linearGradient><linearGradient id="fi-semantic-model-5" x1="15" x2="32.481" y1="22" y2="51.717" gradientUnits="userSpaceOnUse"><stop stop-color="#7751B8"/><stop offset="1" stop-color="#5A409C"/></linearGradient><linearGradient id="fi-semantic-model-6" x1="15" x2="32.481" y1="22" y2="51.717" gradientUnits="userSpaceOnUse"><stop stop-color="#7751B8"/><stop offset="1" stop-color="#5A409C"/></linearGradient><linearGradient id="fi-semantic-model-7" x1="15" x2="32.481" y1="22" y2="51.717" gradientUnits="userSpaceOnUse"><stop stop-color="#7751B8"/><stop offset="1" stop-color="#5A409C"/></linearGradient><radialGradient id="fi-semantic-model-8" cx="0" cy="0" r="1" gradientTransform="matrix(27.4444 41.16672 -35.62501 23.74995 22.61 19.541)" gradientUnits="userSpaceOnUse"><stop offset=".177" stop-color="#fff"/><stop offset="1" stop-color="#B8B8B8"/></radialGradient><symbol id="fi-semantic-model" viewBox="4.96 4.96 54.08 54.08"><g fill="currentColor"><path fill="url(#fi-semantic-model-1)" d="M6 13a7 7 0 0 1 7-7h38a7 7 0 0 1 7 7v38a7 7 0 0 1-7 7H13a7 7 0 0 1-7-7z"/><path fill="url(#fi-semantic-model-8)" fill-opacity=".2" d="M6 13a7 7 0 0 1 7-7h38a7 7 0 0 1 7 7v38a7 7 0 0 1-7 7H13a7 7 0 0 1-7-7z"/><path fill="url(#fi-semantic-model-2)" fill-rule="evenodd" d="M51 7H13a6 6 0 0 0-6 6v38a6 6 0 0 0 6 6h38a6 6 0 0 0 6-6V13a6 6 0 0 0-6-6M13 6a7 7 0 0 0-7 7v38a7 7 0 0 0 7 7h38a7 7 0 0 0 7-7V13a7 7 0 0 0-7-7z" clip-rule="evenodd"/><path fill="url(#fi-semantic-model-3)" d="M18 28a3 3 0 1 0 0-6 3 3 0 0 0 0 6"/><path fill="url(#fi-semantic-model-4)" d="M32 28a3 3 0 1 0 0-6 3 3 0 0 0 0 6"/><path fill="url(#fi-semantic-model-5)" d="M34.873 39a3 3 0 1 1-6 0 3 3 0 0 1 6 0"/><path fill="url(#fi-semantic-model-6)" d="M18 42a3 3 0 1 0 0-6 3 3 0 0 0 0 6"/><path fill="url(#fi-semantic-model-7)" d="M49 25a3 3 0 1 1-6 0 3 3 0 0 1 6 0"/></g></symbol></defs>
<rect width="1280" height="840" fill="#FFFFFF"/>
<text x="24" y="40" font-size="21" font-weight="700" fill="#1F2328" text-anchor="start"><tspan x="24" dy="0">How credentials flow: from a person's sign-in to a report that shows only their rows</tspan></text>
<text x="24" y="64" font-size="13.5" font-weight="400" fill="#57606A" text-anchor="start"><tspan x="24" dy="0">Fabrikam's Texas rep opens Sales overview. Contoso's people go through the same steps, as contososa, in Contoso's workspace.</tspan></text>
<circle cx="360" cy="372" r="248" fill="url(#hatch)"/>
<circle cx="922" cy="372" r="248" fill="url(#hatch)"/>
<text x="360" y="112" font-size="24" font-weight="400" fill="#8FA9CF" text-anchor="middle"><tspan x="360" dy="0">Getting a Microsoft Entra token</tspan></text>
<text x="922" y="112" font-size="24" font-weight="400" fill="#8FA9CF" text-anchor="middle"><tspan x="922" dy="0">Generating an embed token</tspan></text>
<g><rect x="605" y="346" width="70" height="52" rx="6" fill="#1F5AA6" stroke="#1F5AA6" stroke-width="1"/><rect x="611" y="352" width="58" height="40" rx="2" fill="#FFFFFF" stroke="none" stroke-width="1"/><path d="M611,372 H669 M636.8181818181819,352 V392 M636.8181818181819,363 H669" stroke="#1F5AA6" stroke-width="2.5"/><circle cx="672" cy="358" r="1.4" fill="#FFFFFF"/><circle cx="672" cy="364" r="1.4" fill="#FFFFFF"/><circle cx="672" cy="370" r="1.4" fill="#FFFFFF"/></g>
<text x="640" y="314" font-size="14" font-weight="700" fill="#1F2328" text-anchor="middle"><tspan x="640" dy="0">Platform app</tspan><tspan x="640" dy="18.2">server</tspan></text>
<g transform="translate(440 212) scale(1.15)"><g transform="translate(0 0) scale(1)"><path d="M-30,14 C-42,14 -42,-6 -28,-6 C-28,-22 -6,-26 0,-12 C6,-24 28,-20 26,-4 C40,-4 40,14 28,14 Z" fill="#3AA0E8"/></g><circle cx="0" cy="2" r="10" fill="#FFD43B" stroke="#E0A800" stroke-width="2"/><circle cx="0" cy="2" r="5" fill="#FFF3B0"/><path d="M-6,10 L-10,24 L-3,20 L0,26 L2,12 Z M6,10 L10,24 L3,20 L0,26 L-2,12 Z" fill="#2BB5A0"/></g>
<text x="440" y="154" font-size="14" font-weight="700" fill="#1F2328" text-anchor="middle"><tspan x="440" dy="0">Service principal fabrikamsa</tspan></text>
<text x="440" y="171" font-size="11.5" font-weight="400" fill="#57606A" text-anchor="middle"><tspan x="440" dy="0">certificate now · federation is also supported</tspan></text>
<g transform="translate(168 372) scale(1)"><path d="M0,-30 L26,8 L0,30 L-26,8 Z" fill="#9BD0F5"/><path d="M0,-30 L26,8 L0,14 Z" fill="#46A3E6"/><path d="M0,-30 L-26,8 L0,14 Z" fill="#7BC0EE"/><path d="M-26,8 L0,30 L0,14 Z" fill="#0078D4"/><path d="M26,8 L0,30 L0,14 Z" fill="#005A9E"/></g>
<text x="168" y="424" font-size="14" font-weight="700" fill="#1F2328" text-anchor="middle"><tspan x="168" dy="0">Microsoft Entra ID</tspan></text>
<text x="168" y="440" font-size="11.5" font-weight="400" fill="#57606A" text-anchor="middle"><tspan x="168" dy="0">the platform's tenant</tspan></text>
<use href="#fi-power-bi" xlink:href="#fi-power-bi" x="1086" y="348" width="48" height="48"/>
<text x="1110" y="418" font-size="14" font-weight="700" fill="#1F2328" text-anchor="middle"><tspan x="1110" dy="0">Power BI REST API</tspan></text>
<text x="1110" y="434" font-size="11.5" font-weight="400" fill="#57606A" text-anchor="middle"><tspan x="1110" dy="0">Generate Token V2</tspan></text>
<g transform="translate(470 700) scale(1.5)"><circle cx="0" cy="-11" r="8.5" fill="#C55A11"/><path d="M-15,17 C-15,4 -8,0 0,0 C8,0 15,4 15,17 Z" fill="#C55A11"/></g>
<g><rect x="506" y="688" width="44" height="32" rx="5" fill="#FFFFFF" stroke="#C55A11" stroke-width="2"/><path d="M506,697 H550" stroke="#C55A11" stroke-width="2"/><circle cx="512" cy="692.6" r="1.6" fill="#C55A11"/><circle cx="518" cy="692.6" r="1.6" fill="#C55A11"/><circle cx="524" cy="692.6" r="1.6" fill="#C55A11"/><rect x="512" y="702" width="19.8" height="5" rx="2" fill="#C55A11" opacity="0.45"/><rect x="512" y="711" width="32" height="4" rx="2" fill="#C55A11" opacity="0.25"/><rect x="512" y="718" width="26.4" height="4" rx="2" fill="#C55A11" opacity="0.25"/></g>
<text x="480" y="752" font-size="14" font-weight="700" fill="#1F2328" text-anchor="middle"><tspan x="480" dy="0">Fabrikam's Texas rep</tspan></text>
<text x="480" y="768" font-size="11.5" font-weight="400" fill="#57606A" text-anchor="middle"><tspan x="480" dy="0">a browser, no Power BI user license needed</tspan></text>
<use href="#fi-power-bi" xlink:href="#fi-power-bi" x="828" y="670" width="48" height="48"/>
<text x="852" y="744" font-size="14" font-weight="700" fill="#1F2328" text-anchor="middle"><tspan x="852" dy="0">Power BI service</tspan></text>
<text x="852" y="760" font-size="11.5" font-weight="400" fill="#57606A" text-anchor="middle"><tspan x="852" dy="0">renders the report</tspan></text>
<use href="#fi-onelake" xlink:href="#fi-onelake" x="1100" y="674" width="40" height="40"/>
<circle cx="1139" cy="709" r="9" fill="#FFFFFF"/><g color="#0078D4"><use href="#fi-lock" xlink:href="#fi-lock" x="1130" y="700" width="18" height="18"/></g>
<text x="1120" y="744" font-size="14" font-weight="700" fill="#1F2328" text-anchor="middle"><tspan x="1120" dy="0">OneLake</tspan></text>
<text x="1120" y="760" font-size="11.5" font-weight="400" fill="#57606A" text-anchor="middle"><tspan x="1120" dy="0">workspace identity connection</tspan><tspan x="1120" dy="14.950000000000001">fixed identity; SSO is off</tspan></text>
<path d="M500,660 C530,560 550,452 618,402" fill="none" stroke="#7D8590" stroke-width="2" marker-end="url(#a-gray)"/>
<circle cx="545" cy="512" r="12" fill="#1F5AA6"/><text x="545" y="516.5" font-size="13" font-weight="700" fill="#FFFFFF" text-anchor="middle"><tspan x="545" dy="0">1</tspan></text>
<rect x="320.4" y="487.7" width="207.6" height="34.7" rx="4" fill="#FFFFFF" opacity="0.94"/><text x="528" y="500" font-size="11.5" font-weight="400" fill="#1F2328" text-anchor="end"><tspan x="528" dy="0">Signs in at Fabrikam's address:</tspan><tspan x="528" dy="14.950000000000001">a session cookie</tspan></text>
<path d="M604,358 C550,312 530,232 482,216" fill="none" stroke="#7D8590" stroke-width="2" marker-end="url(#a-gray)"/>
<circle cx="538" cy="278" r="12" fill="#1F5AA6"/><text x="538" y="282.5" font-size="13" font-weight="700" fill="#FFFFFF" text-anchor="middle"><tspan x="538" dy="0">2</tspan></text>
<path d="M400,212 C300,212 178,262 172,334" fill="none" stroke="#7D8590" stroke-width="2" marker-end="url(#a-gray)"/>
<circle cx="290" cy="230" r="12" fill="#1F5AA6"/><text x="290" y="234.5" font-size="13" font-weight="700" fill="#FFFFFF" text-anchor="middle"><tspan x="290" dy="0">2</tspan></text>
<rect x="171.4" y="255.7" width="201.2" height="34.7" rx="4" fill="#FFFFFF" opacity="0.94"/><text x="272" y="268" font-size="11.5" font-weight="400" fill="#1F2328" text-anchor="middle"><tspan x="272" dy="0">MSAL: an assertion signed with</tspan><tspan x="272" dy="14.950000000000001">fabrikamsa's certificate</tspan></text>
<path d="M198,372 H600" fill="none" stroke="#1F5AA6" stroke-width="2" marker-end="url(#a-blue)"/>
<g transform="translate(388 370) scale(1.1)"><circle cx="0" cy="-12" r="9" fill="#1F5AA6"/><circle cx="0" cy="-14" r="3" fill="#FFFFFF"/><rect x="-3" y="-4" width="6" height="26" rx="2" fill="#1F5AA6"/><rect x="3" y="8" width="7" height="4" fill="#1F5AA6"/><rect x="3" y="15" width="5" height="4" fill="#1F5AA6"/></g>
<circle cx="290" cy="372" r="12" fill="#1F5AA6"/><text x="290" y="376.5" font-size="13" font-weight="700" fill="#FFFFFF" text-anchor="middle"><tspan x="290" dy="0">3</tspan></text>
<rect x="322.8" y="401.7" width="130.4" height="34.7" rx="4" fill="#FFFFFF" opacity="0.94"/><text x="388" y="414" font-size="11.5" font-weight="600" fill="#1F5AA6" text-anchor="middle"><tspan x="388" dy="0">Entra token</tspan><tspan x="388" dy="14.950000000000001">stays on the server</tspan></text>
<path d="M676,358 H700 V252 H1120 V346" fill="none" stroke="#7D8590" stroke-width="2" marker-end="url(#a-gray)"/>
<circle cx="880" cy="252" r="12" fill="#1F5AA6"/><text x="880" y="256.5" font-size="13" font-weight="700" fill="#FFFFFF" text-anchor="middle"><tspan x="880" dy="0">4</tspan></text>
<rect x="892.0" y="207.7" width="304.2" height="34.7" rx="4" fill="#FFFFFF" opacity="0.94"/><text x="896" y="220" font-size="11.5" font-weight="400" fill="#1F2328" text-anchor="start"><tspan x="896" dy="0">Generate Token V2: this report and model,</tspan><tspan x="896" dy="14.950000000000001">username drew.collins@fabrikam.com, role Texas</tspan></text>
<path d="M1089,384 H680" fill="none" stroke="#0B8A8A" stroke-width="2" marker-end="url(#a-teal)"/>
<g transform="translate(872 382) scale(1.1)"><circle cx="0" cy="-12" r="9" fill="#0B8A8A"/><circle cx="0" cy="-14" r="3" fill="#FFFFFF"/><rect x="-3" y="-4" width="6" height="26" rx="2" fill="#0B8A8A"/><rect x="3" y="8" width="7" height="4" fill="#0B8A8A"/><rect x="3" y="15" width="5" height="4" fill="#0B8A8A"/></g>
<circle cx="980" cy="384" r="12" fill="#0B8A8A"/><text x="980" y="388.5" font-size="13" font-weight="700" fill="#FFFFFF" text-anchor="middle"><tspan x="980" dy="0">5</tspan></text>
<rect x="755.3" y="415.7" width="233.4" height="34.7" rx="4" fill="#FFFFFF" opacity="0.94"/><text x="872" y="428" font-size="11.5" font-weight="600" fill="#0B8A8A" text-anchor="middle"><tspan x="872" dy="0">Embed token: report and model,</tspan><tspan x="872" dy="14.950000000000001">up to 30 min by default, role Texas</tspan></text>
<path d="M646,402 C660,522 620,660 556,684" fill="none" stroke="#0B8A8A" stroke-width="2" marker-end="url(#a-teal)"/>
<g transform="translate(672 522) scale(0.9)"><circle cx="0" cy="-12" r="9" fill="#0B8A8A"/><circle cx="0" cy="-14" r="3" fill="#FFFFFF"/><rect x="-3" y="-4" width="6" height="26" rx="2" fill="#0B8A8A"/><rect x="3" y="8" width="7" height="4" fill="#0B8A8A"/><rect x="3" y="15" width="5" height="4" fill="#0B8A8A"/></g>
<circle cx="644" cy="492" r="12" fill="#0B8A8A"/><text x="644" y="496.5" font-size="13" font-weight="700" fill="#FFFFFF" text-anchor="middle"><tspan x="644" dy="0">6</tspan></text>
<rect x="688.0" y="513.7" width="265.6" height="34.7" rx="4" fill="#FFFFFF" opacity="0.94"/><text x="692" y="526" font-size="11.5" font-weight="400" fill="#1F2328" text-anchor="start"><tspan x="692" dy="0">Embed URL, embed token, metadata:</tspan><tspan x="692" dy="14.950000000000001">never the certificate or the Entra token</tspan></text>
<path d="M558,704 H831" fill="none" stroke="#0B8A8A" stroke-width="2" marker-end="url(#a-teal)" marker-start="url(#a-teal)"/>
<circle cx="700" cy="704" r="12" fill="#0B8A8A"/><text x="700" y="708.5" font-size="13" font-weight="700" fill="#FFFFFF" text-anchor="middle"><tspan x="700" dy="0">7</tspan></text>
<rect x="600.2" y="657.7" width="207.6" height="34.7" rx="4" fill="#FFFFFF" opacity="0.94"/><text x="704" y="670" font-size="11.5" font-weight="400" fill="#1F2328" text-anchor="middle"><tspan x="704" dy="0">powerbi-client loads the report</tspan><tspan x="704" dy="14.950000000000001">with the embed token</tspan></text>
<path d="M872,694 H1097" fill="none" stroke="#7D8590" stroke-width="2" marker-end="url(#a-gray)"/>
<circle cx="986" cy="694" r="12" fill="#1F5AA6"/><text x="986" y="698.5" font-size="13" font-weight="700" fill="#FFFFFF" text-anchor="middle"><tspan x="986" dy="0">8</tspan></text>
<rect x="889.1" y="647.7" width="209.9" height="34.7" rx="4" fill="#FFFFFF" opacity="0.94"/><use href="#fi-semantic-model" xlink:href="#fi-semantic-model" x="893.06" y="654.05" width="22" height="22"/><text x="921.06" y="660" font-size="11.5" font-weight="400" fill="#1F2328" text-anchor="start"><tspan x="921.06" dy="0">Direct Lake: the Texas role</tspan><tspan x="921.06" dy="14.950000000000001">filters the rows</tspan></text>
<rect x="24" y="788" width="1232" height="40" rx="8" fill="#E7F0FA" stroke="#1F5AA6" stroke-width="1"/>
<text x="40" y="813" font-size="12.5" font-weight="400" fill="#1F2328" text-anchor="start"><tspan x="40" dy="0">Also as fabrikamsa, with tokens for other resources: the CRM pages read the SQL database (a SQL token), and managers' questions go to the data agent over MCP (a Fabric token).</tspan></text>
</svg>
